<svg id="图层_1" data-name="图层 1" xmlns="http://www.w3.org/2000/svg" viewBox="0 0 20 20"><defs><style>.cls-1{fill:#fff;}</style></defs><title>图标</title><path class="cls-1" d="M1.06,10.24l3.49,3.28a.18.18,0,0,0,.27,0,.19.19,0,0,0,0-.14V6.78a.21.21,0,0,0-.2-.21.15.15,0,0,0-.13,0L1.06,9.9a.23.23,0,0,0,0,.31l0,0ZM2,1.74H18c.67,0,1,.39,1,1.15S18.64,4,18,4H2c-.66,0-1-.37-1-1.14s.34-1.15,1-1.15ZM2,15.5H18c.67,0,1,.39,1,1.14s-.33,1.15-1,1.15H2c-.67,0-1-.39-1-1.15s.34-1.14,1-1.14ZM8,8.62H18c.67,0,1,.39,1,1.15s-.33,1.14-1,1.14H8c-.67,0-1-.39-1-1.14s.34-1.15,1-1.15Zm0,0"/></svg>