<svg t="1652426798637" class="icon" viewBox="0 0 1024 1024" version="1.1" xmlns="http://www.w3.org/2000/svg" p-id="11759" width="512" height="512"><path d="M872.618667 34.133333H151.552c-37.717333 0-68.266667 30.549333-68.266667 68.266667v840.874667c0 14.165333 6.144 28.16 17.578667 36.352 18.261333 13.141333 42.154667 10.24 56.832-5.12l82.432-86.869334 109.226667 89.258667a43.025067 43.025067 0 0 0 59.392 1.536l103.082666-93.354667 109.738667 93.184c8.192 7.68 18.773333 11.605333 29.525333 11.605334 10.581333 0 21.162667-3.754667 29.354667-11.434667l108.202667-91.136 75.605333 83.456c11.605333 12.629333 29.354667 19.114667 45.738667 14.165333 18.602667-5.632 30.890667-22.186667 30.890666-41.301333V102.4c0-37.717333-30.72-68.266667-68.266666-68.266667zM641.365333 384.341333c18.773333 0 34.133333 15.36 34.133334 34.133334s-15.36 34.133333-34.133334 34.133333h-95.061333v61.098667h95.061333c18.773333 0 34.133333 15.36 34.133334 34.133333s-15.36 34.133333-34.133334 34.133333h-95.061333v95.232c0 18.773333-15.36 34.133333-34.133333 34.133334s-34.133333-15.36-34.133334-34.133334V581.973333h-95.402666c-18.773333 0-34.133333-15.36-34.133334-34.133333s15.36-34.133333 34.133334-34.133333h95.402666v-61.098667h-95.402666c-18.773333 0-34.133333-15.36-34.133334-34.133333s15.36-34.133333 34.133334-34.133334h68.437333L358.4 291.669333c-13.312-13.312-13.312-34.986667 0-48.298666s34.986667-13.312 48.298667 0L512 348.501333l105.301333-105.301333c13.312-13.312 34.986667-13.312 48.298667 0s13.312 34.986667 0 48.298667l-92.672 92.672h68.437333z" fill="#ffffff" p-id="11760"></path></svg>