<svg id="图层_1" data-name="图层 1" xmlns="http://www.w3.org/2000/svg" viewBox="0 0 20 20"><defs><style>.cls-1{fill:#fff;}</style></defs><title>图标</title><path class="cls-1" d="M18.53,10.24s0,0,0,0a.23.23,0,0,0,0-.31L15.05,6.62a.17.17,0,0,0-.13,0,.22.22,0,0,0-.21.21v6.57a.24.24,0,0,0,0,.14.19.19,0,0,0,.28,0l3.49-3.28Zm-.92-8.5c.66,0,1,.39,1,1.15S18.27,4,17.61,4h-16c-.66,0-1-.37-1-1.14s.33-1.15,1-1.15Zm0,13.76c.66,0,1,.39,1,1.14s-.32,1.15-1,1.15h-16c-.66,0-1-.38-1-1.15s.33-1.14,1-1.14Zm-6-6.88c.66,0,1,.39,1,1.15s-.32,1.14-1,1.14h-10c-.66,0-1-.37-1-1.14s.33-1.15,1-1.15Zm0,0"/></svg>